<svg xmlns="http://www.w3.org/2000/svg" xmlns:xlink="http://www.w3.org/1999/xlink" width="48" zoomAndPan="magnify" viewBox="0 0 36 36.000001" height="48" preserveAspectRatio="xMidYMid meet" version="1.0"><defs><g/><clipPath id="35ab6c4565"><path d="M 0.488281 0 L 35.511719 0 L 35.511719 35.027344 L 0.488281 35.027344 Z M 0.488281 0 " clip-rule="nonzero"/></clipPath><clipPath id="19c194dd2a"><path d="M 0.488281 0 L 34 0 L 34 35 L 0.488281 35 Z M 0.488281 0 " clip-rule="nonzero"/></clipPath><clipPath id="5648996371"><path d="M 0.488281 1.074219 L 33.726562 1.074219 L 33.726562 33.890625 L 0.488281 33.890625 Z M 0.488281 1.074219 " clip-rule="nonzero"/></clipPath><clipPath id="2f548f8bac"><rect x="0" width="14" y="0" height="11"/></clipPath><clipPath id="d99842f795"><rect x="0" width="34" y="0" height="35"/></clipPath></defs><g clip-path="url(#35ab6c4565)"><path fill="#ffffff" d="M 0.488281 0 L 35.511719 0 L 35.511719 35.027344 L 0.488281 35.027344 Z M 0.488281 0 " fill-opacity="1" fill-rule="nonzero"/><path fill="#0054d2" d="M 0.488281 0 L 35.511719 0 L 35.511719 35.027344 L 0.488281 35.027344 Z M 0.488281 0 " fill-opacity="1" fill-rule="nonzero"/></g><g clip-path="url(#19c194dd2a)"><g transform="matrix(1, 0, 0, 1, 0.000000000000000056, 0.000000000000010547)"><g clip-path="url(#d99842f795)"><g clip-path="url(#5648996371)"><path fill="#fac64c" d="M 33.503906 9.117188 L 19.71875 1.160156 C 19.550781 1.0625 19.386719 1.0625 19.21875 1.160156 L 14.277344 4.015625 C 14.261719 4.023438 14.246094 4.03125 14.226562 4.042969 L 12.328125 5.140625 L 5.4375 9.117188 C 5.269531 9.214844 5.1875 9.359375 5.1875 9.550781 L 5.1875 12.160156 L 0.128906 12.160156 C -0.0078125 12.160156 -0.125 12.210938 -0.222656 12.308594 C -0.320312 12.402344 -0.367188 12.523438 -0.367188 12.660156 C -0.367188 12.796875 -0.320312 12.914062 -0.222656 13.011719 C -0.125 13.109375 -0.0078125 13.15625 0.128906 13.15625 L 5.1875 13.15625 L 5.1875 14.585938 L 1.78125 14.585938 C 1.644531 14.585938 1.527344 14.636719 1.429688 14.730469 C 1.332031 14.828125 1.285156 14.945312 1.285156 15.085938 C 1.285156 15.222656 1.332031 15.339844 1.429688 15.4375 C 1.527344 15.535156 1.644531 15.582031 1.78125 15.582031 L 5.1875 15.582031 L 5.1875 17.011719 L -0.347656 17.011719 C -0.484375 17.011719 -0.601562 17.058594 -0.699219 17.15625 C -0.796875 17.253906 -0.84375 17.371094 -0.84375 17.507812 C -0.84375 17.648438 -0.796875 17.765625 -0.699219 17.859375 C -0.601562 17.957031 -0.484375 18.007812 -0.347656 18.007812 L 5.1875 18.007812 L 5.1875 19.4375 L 1.78125 19.4375 C 1.644531 19.4375 1.527344 19.484375 1.429688 19.582031 C 1.332031 19.679688 1.285156 19.796875 1.285156 19.933594 C 1.285156 20.070312 1.332031 20.1875 1.429688 20.285156 C 1.527344 20.382812 1.644531 20.433594 1.78125 20.433594 L 5.1875 20.433594 L 5.1875 21.863281 L 0.128906 21.863281 C -0.0078125 21.863281 -0.125 21.910156 -0.222656 22.007812 C -0.320312 22.105469 -0.367188 22.222656 -0.367188 22.359375 C -0.367188 22.496094 -0.320312 22.613281 -0.222656 22.710938 C -0.125 22.808594 -0.0078125 22.855469 0.128906 22.855469 L 5.1875 22.855469 L 5.1875 25.46875 C 5.1875 25.660156 5.269531 25.804688 5.4375 25.898438 L 19.21875 33.859375 C 19.386719 33.953125 19.550781 33.953125 19.71875 33.859375 L 33.503906 25.898438 C 33.667969 25.804688 33.75 25.660156 33.75 25.46875 L 33.75 9.550781 C 33.75 9.359375 33.667969 9.214844 33.503906 9.117188 Z M 19.46875 2.167969 L 32.257812 9.550781 L 28.285156 11.84375 L 15.496094 4.460938 Z M 12.828125 6.003906 L 14.5 5.035156 L 27.289062 12.417969 L 24.4375 14.066406 L 11.652344 6.679688 Z M 27.785156 13.28125 L 27.785156 19.214844 L 24.9375 20.859375 L 24.9375 14.925781 Z M 18.972656 32.566406 L 12.828125 29.015625 L 6.183594 25.179688 L 6.183594 22.855469 L 6.929688 22.855469 C 7.066406 22.855469 7.183594 22.808594 7.28125 22.710938 C 7.378906 22.613281 7.425781 22.496094 7.425781 22.359375 C 7.425781 22.222656 7.378906 22.105469 7.28125 22.007812 C 7.183594 21.910156 7.066406 21.863281 6.929688 21.863281 L 6.183594 21.863281 L 6.183594 20.433594 L 8.398438 20.433594 C 8.535156 20.433594 8.652344 20.382812 8.75 20.285156 C 8.847656 20.1875 8.894531 20.070312 8.894531 19.933594 C 8.894531 19.796875 8.847656 19.679688 8.75 19.582031 C 8.652344 19.484375 8.535156 19.4375 8.398438 19.4375 L 6.183594 19.4375 L 6.183594 18.007812 L 6.929688 18.007812 C 7.066406 18.007812 7.183594 17.957031 7.28125 17.859375 C 7.378906 17.765625 7.425781 17.648438 7.425781 17.507812 C 7.425781 17.371094 7.378906 17.253906 7.28125 17.15625 C 7.183594 17.058594 7.066406 17.011719 6.929688 17.011719 L 6.183594 17.011719 L 6.183594 15.582031 L 8.398438 15.582031 C 8.535156 15.582031 8.652344 15.535156 8.75 15.4375 C 8.847656 15.339844 8.894531 15.222656 8.894531 15.085938 C 8.894531 14.945312 8.847656 14.828125 8.75 14.730469 C 8.652344 14.636719 8.535156 14.585938 8.398438 14.585938 L 6.183594 14.585938 L 6.183594 13.15625 L 6.929688 13.15625 C 7.066406 13.15625 7.183594 13.109375 7.28125 13.011719 C 7.378906 12.914062 7.425781 12.796875 7.425781 12.660156 C 7.425781 12.523438 7.378906 12.402344 7.28125 12.308594 C 7.183594 12.210938 7.066406 12.160156 6.929688 12.160156 L 6.183594 12.160156 L 6.183594 10.414062 L 18.972656 17.796875 Z M 19.46875 16.933594 L 6.679688 9.550781 L 10.65625 7.257812 L 23.441406 14.640625 Z M 32.757812 25.179688 L 19.96875 32.566406 L 19.96875 17.796875 L 23.941406 15.5 L 23.941406 21.71875 C 23.941406 21.910156 24.023438 22.054688 24.191406 22.152344 C 24.355469 22.246094 24.523438 22.246094 24.6875 22.152344 L 28.535156 19.933594 C 28.699219 19.835938 28.78125 19.691406 28.78125 19.5 L 28.78125 12.707031 L 32.757812 10.414062 Z M -1.207031 17.507812 C -1.207031 17.648438 -1.253906 17.765625 -1.351562 17.859375 C -1.449219 17.957031 -1.566406 18.007812 -1.703125 18.007812 L -2.164062 18.007812 C -2.300781 18.007812 -2.417969 17.957031 -2.515625 17.859375 C -2.613281 17.765625 -2.660156 17.648438 -2.660156 17.507812 C -2.660156 17.371094 -2.613281 17.253906 -2.515625 17.15625 C -2.417969 17.058594 -2.300781 17.011719 -2.164062 17.011719 L -1.703125 17.011719 C -1.566406 17.011719 -1.449219 17.058594 -1.351562 17.15625 C -1.253906 17.253906 -1.207031 17.371094 -1.207031 17.507812 Z M -1.207031 17.507812 " fill-opacity="1" fill-rule="nonzero"/></g><g transform="matrix(1, 0, 0, 1, 8, 7)"><g clip-path="url(#2f548f8bac)"><g fill="#ffffff" fill-opacity="0.4"><g transform="translate(1.235409, 3.217822)"><g><path d="M 2.28125 -0.109375 C 2.414062 -0.00390625 2.492188 0.113281 2.515625 0.25 C 2.535156 0.382812 2.503906 0.519531 2.421875 0.65625 C 2.316406 0.832031 2.171875 0.929688 1.984375 0.953125 C 1.796875 0.972656 1.570312 0.910156 1.3125 0.765625 L 0.34375 0.203125 L 1.5625 -1.890625 L 2.46875 -1.375 C 2.695312 -1.238281 2.847656 -1.085938 2.921875 -0.921875 C 3.003906 -0.753906 2.992188 -0.582031 2.890625 -0.40625 C 2.828125 -0.289062 2.742188 -0.210938 2.640625 -0.171875 C 2.535156 -0.128906 2.414062 -0.109375 2.28125 -0.109375 Z M 1.671875 -1.59375 L 1.234375 -0.828125 L 1.90625 -0.4375 C 2.070312 -0.34375 2.21875 -0.300781 2.34375 -0.3125 C 2.476562 -0.320312 2.582031 -0.390625 2.65625 -0.515625 C 2.726562 -0.628906 2.734375 -0.75 2.671875 -0.875 C 2.617188 -1 2.507812 -1.109375 2.34375 -1.203125 Z M 1.421875 0.578125 C 1.597656 0.679688 1.753906 0.726562 1.890625 0.71875 C 2.023438 0.71875 2.132812 0.648438 2.21875 0.515625 C 2.363281 0.253906 2.25 0.015625 1.875 -0.203125 L 1.125 -0.640625 L 0.671875 0.140625 Z M 1.421875 0.578125 "/></g></g></g><g fill="#ffffff" fill-opacity="0.4"><g transform="translate(3.4949, 4.526005)"><g><path d="M 1.234375 0.75 C 1.035156 0.625 0.878906 0.46875 0.765625 0.28125 C 0.660156 0.101562 0.601562 -0.09375 0.59375 -0.3125 C 0.59375 -0.539062 0.648438 -0.757812 0.765625 -0.96875 C 0.878906 -1.164062 1.03125 -1.316406 1.21875 -1.421875 C 1.414062 -1.523438 1.625 -1.578125 1.84375 -1.578125 C 2.070312 -1.578125 2.285156 -1.515625 2.484375 -1.390625 C 2.691406 -1.273438 2.847656 -1.117188 2.953125 -0.921875 C 3.066406 -0.734375 3.125 -0.53125 3.125 -0.3125 C 3.132812 -0.09375 3.082031 0.113281 2.96875 0.3125 C 2.851562 0.519531 2.695312 0.675781 2.5 0.78125 C 2.3125 0.894531 2.101562 0.945312 1.875 0.9375 C 1.65625 0.925781 1.441406 0.863281 1.234375 0.75 Z M 1.359375 0.5625 C 1.535156 0.65625 1.707031 0.703125 1.875 0.703125 C 2.050781 0.703125 2.21875 0.65625 2.375 0.5625 C 2.53125 0.476562 2.65625 0.347656 2.75 0.171875 C 2.84375 0.015625 2.890625 -0.144531 2.890625 -0.3125 C 2.890625 -0.488281 2.84375 -0.65625 2.75 -0.8125 C 2.664062 -0.96875 2.535156 -1.09375 2.359375 -1.1875 C 2.203125 -1.28125 2.035156 -1.328125 1.859375 -1.328125 C 1.679688 -1.328125 1.515625 -1.285156 1.359375 -1.203125 C 1.203125 -1.117188 1.078125 -1 0.984375 -0.84375 C 0.890625 -0.664062 0.84375 -0.488281 0.84375 -0.3125 C 0.84375 -0.132812 0.890625 0.03125 0.984375 0.1875 C 1.078125 0.34375 1.203125 0.46875 1.359375 0.5625 Z M 1.359375 0.5625 "/></g></g></g><g fill="#ffffff" fill-opacity="0.4"><g transform="translate(6.009107, 5.981662)"><g><path d="M 1.765625 1.03125 L 1.6875 0.078125 C 1.632812 0.0546875 1.578125 0.03125 1.515625 0 L 0.953125 -0.328125 L 0.5625 0.328125 L 0.34375 0.203125 L 1.5625 -1.890625 L 2.34375 -1.4375 C 2.613281 -1.28125 2.785156 -1.09375 2.859375 -0.875 C 2.941406 -0.664062 2.914062 -0.445312 2.78125 -0.21875 C 2.6875 -0.0625 2.566406 0.046875 2.421875 0.109375 C 2.285156 0.179688 2.117188 0.195312 1.921875 0.15625 L 2.015625 1.171875 Z M 1.625 -0.203125 C 1.832031 -0.0859375 2.015625 -0.0390625 2.171875 -0.0625 C 2.335938 -0.09375 2.46875 -0.1875 2.5625 -0.34375 C 2.664062 -0.519531 2.6875 -0.6875 2.625 -0.84375 C 2.570312 -1 2.441406 -1.132812 2.234375 -1.25 L 1.671875 -1.578125 L 1.0625 -0.53125 Z M 1.625 -0.203125 "/></g></g></g><g fill="#ffffff" fill-opacity="0.4"><g transform="translate(8.175701, 7.23606)"><g><path d="M 1.984375 0.40625 L 0.8125 -0.28125 L 0.25 0.140625 L 0 0 L 2.171875 -1.53125 L 2.40625 -1.40625 L 2.15625 1.25 L 1.90625 1.109375 Z M 2.015625 0.171875 L 2.140625 -1.234375 L 1 -0.421875 Z M 2.015625 0.171875 "/></g></g></g><g fill="#ffffff" fill-opacity="0.4"><g transform="translate(10.114548, 8.358599)"><g><path d="M 1.078125 -0.234375 C 1.117188 -0.304688 1.171875 -0.363281 1.234375 -0.40625 C 1.296875 -0.457031 1.359375 -0.488281 1.421875 -0.5 C 1.492188 -0.519531 1.578125 -0.546875 1.671875 -0.578125 C 1.804688 -0.597656 1.910156 -0.625 1.984375 -0.65625 C 2.054688 -0.695312 2.113281 -0.753906 2.15625 -0.828125 C 2.21875 -0.941406 2.226562 -1.054688 2.1875 -1.171875 C 2.144531 -1.296875 2.046875 -1.398438 1.890625 -1.484375 C 1.648438 -1.628906 1.414062 -1.65625 1.1875 -1.5625 L 1.09375 -1.78125 C 1.382812 -1.894531 1.691406 -1.859375 2.015625 -1.671875 C 2.222656 -1.546875 2.359375 -1.398438 2.421875 -1.234375 C 2.492188 -1.066406 2.484375 -0.898438 2.390625 -0.734375 C 2.347656 -0.648438 2.296875 -0.582031 2.234375 -0.53125 C 2.171875 -0.488281 2.109375 -0.457031 2.046875 -0.4375 C 1.984375 -0.414062 1.898438 -0.394531 1.796875 -0.375 C 1.671875 -0.351562 1.570312 -0.320312 1.5 -0.28125 C 1.425781 -0.238281 1.363281 -0.175781 1.3125 -0.09375 Z M 0.796875 0.484375 C 0.753906 0.460938 0.726562 0.425781 0.71875 0.375 C 0.707031 0.332031 0.710938 0.289062 0.734375 0.25 C 0.765625 0.207031 0.800781 0.175781 0.84375 0.15625 C 0.894531 0.144531 0.941406 0.148438 0.984375 0.171875 C 1.023438 0.203125 1.050781 0.238281 1.0625 0.28125 C 1.082031 0.332031 1.078125 0.378906 1.046875 0.421875 C 1.023438 0.460938 0.988281 0.488281 0.9375 0.5 C 0.882812 0.519531 0.835938 0.515625 0.796875 0.484375 Z M 0.796875 0.484375 "/></g></g></g><g fill="#ffffff" fill-opacity="1"><g transform="translate(1.179649, 3.00871)"><g><path d="M 2.28125 -0.109375 C 2.414062 -0.00390625 2.492188 0.113281 2.515625 0.25 C 2.535156 0.382812 2.503906 0.519531 2.421875 0.65625 C 2.316406 0.832031 2.171875 0.929688 1.984375 0.953125 C 1.796875 0.972656 1.570312 0.910156 1.3125 0.765625 L 0.34375 0.203125 L 1.5625 -1.890625 L 2.46875 -1.375 C 2.695312 -1.238281 2.847656 -1.085938 2.921875 -0.921875 C 3.003906 -0.753906 2.992188 -0.582031 2.890625 -0.40625 C 2.828125 -0.289062 2.742188 -0.210938 2.640625 -0.171875 C 2.535156 -0.128906 2.414062 -0.109375 2.28125 -0.109375 Z M 1.671875 -1.59375 L 1.234375 -0.828125 L 1.90625 -0.4375 C 2.070312 -0.34375 2.21875 -0.300781 2.34375 -0.3125 C 2.476562 -0.320312 2.582031 -0.390625 2.65625 -0.515625 C 2.726562 -0.628906 2.734375 -0.75 2.671875 -0.875 C 2.617188 -1 2.507812 -1.109375 2.34375 -1.203125 Z M 1.421875 0.578125 C 1.597656 0.679688 1.753906 0.726562 1.890625 0.71875 C 2.023438 0.71875 2.132812 0.648438 2.21875 0.515625 C 2.363281 0.253906 2.25 0.015625 1.875 -0.203125 L 1.125 -0.640625 L 0.671875 0.140625 Z M 1.421875 0.578125 "/></g></g></g><g fill="#ffffff" fill-opacity="1"><g transform="translate(3.43914, 4.316893)"><g><path d="M 1.234375 0.75 C 1.035156 0.625 0.878906 0.46875 0.765625 0.28125 C 0.660156 0.101562 0.601562 -0.09375 0.59375 -0.3125 C 0.59375 -0.539062 0.648438 -0.757812 0.765625 -0.96875 C 0.878906 -1.164062 1.03125 -1.316406 1.21875 -1.421875 C 1.414062 -1.523438 1.625 -1.578125 1.84375 -1.578125 C 2.070312 -1.578125 2.285156 -1.515625 2.484375 -1.390625 C 2.691406 -1.273438 2.847656 -1.117188 2.953125 -0.921875 C 3.066406 -0.734375 3.125 -0.53125 3.125 -0.3125 C 3.132812 -0.09375 3.082031 0.113281 2.96875 0.3125 C 2.851562 0.519531 2.695312 0.675781 2.5 0.78125 C 2.3125 0.894531 2.101562 0.945312 1.875 0.9375 C 1.65625 0.925781 1.441406 0.863281 1.234375 0.75 Z M 1.359375 0.5625 C 1.535156 0.65625 1.707031 0.703125 1.875 0.703125 C 2.050781 0.703125 2.21875 0.65625 2.375 0.5625 C 2.53125 0.476562 2.65625 0.347656 2.75 0.171875 C 2.84375 0.015625 2.890625 -0.144531 2.890625 -0.3125 C 2.890625 -0.488281 2.84375 -0.65625 2.75 -0.8125 C 2.664062 -0.96875 2.535156 -1.09375 2.359375 -1.1875 C 2.203125 -1.28125 2.035156 -1.328125 1.859375 -1.328125 C 1.679688 -1.328125 1.515625 -1.285156 1.359375 -1.203125 C 1.203125 -1.117188 1.078125 -1 0.984375 -0.84375 C 0.890625 -0.664062 0.84375 -0.488281 0.84375 -0.3125 C 0.84375 -0.132812 0.890625 0.03125 0.984375 0.1875 C 1.078125 0.34375 1.203125 0.46875 1.359375 0.5625 Z M 1.359375 0.5625 "/></g></g></g><g fill="#ffffff" fill-opacity="1"><g transform="translate(5.953348, 5.77255)"><g><path d="M 1.765625 1.03125 L 1.6875 0.078125 C 1.632812 0.0546875 1.578125 0.03125 1.515625 0 L 0.953125 -0.328125 L 0.5625 0.328125 L 0.34375 0.203125 L 1.5625 -1.890625 L 2.34375 -1.4375 C 2.613281 -1.28125 2.785156 -1.09375 2.859375 -0.875 C 2.941406 -0.664062 2.914062 -0.445312 2.78125 -0.21875 C 2.6875 -0.0625 2.566406 0.046875 2.421875 0.109375 C 2.285156 0.179688 2.117188 0.195312 1.921875 0.15625 L 2.015625 1.171875 Z M 1.625 -0.203125 C 1.832031 -0.0859375 2.015625 -0.0390625 2.171875 -0.0625 C 2.335938 -0.09375 2.46875 -0.1875 2.5625 -0.34375 C 2.664062 -0.519531 2.6875 -0.6875 2.625 -0.84375 C 2.570312 -1 2.441406 -1.132812 2.234375 -1.25 L 1.671875 -1.578125 L 1.0625 -0.53125 Z M 1.625 -0.203125 "/></g></g></g><g fill="#ffffff" fill-opacity="1"><g transform="translate(8.119941, 7.026948)"><g><path d="M 1.984375 0.40625 L 0.8125 -0.28125 L 0.25 0.140625 L 0 0 L 2.171875 -1.53125 L 2.40625 -1.40625 L 2.15625 1.25 L 1.90625 1.109375 Z M 2.015625 0.171875 L 2.140625 -1.234375 L 1 -0.421875 Z M 2.015625 0.171875 "/></g></g></g><g fill="#ffffff" fill-opacity="1"><g transform="translate(10.058788, 8.149487)"><g><path d="M 1.078125 -0.234375 C 1.117188 -0.304688 1.171875 -0.363281 1.234375 -0.40625 C 1.296875 -0.457031 1.359375 -0.488281 1.421875 -0.5 C 1.492188 -0.519531 1.578125 -0.546875 1.671875 -0.578125 C 1.804688 -0.597656 1.910156 -0.625 1.984375 -0.65625 C 2.054688 -0.695312 2.113281 -0.753906 2.15625 -0.828125 C 2.21875 -0.941406 2.226562 -1.054688 2.1875 -1.171875 C 2.144531 -1.296875 2.046875 -1.398438 1.890625 -1.484375 C 1.648438 -1.628906 1.414062 -1.65625 1.1875 -1.5625 L 1.09375 -1.78125 C 1.382812 -1.894531 1.691406 -1.859375 2.015625 -1.671875 C 2.222656 -1.546875 2.359375 -1.398438 2.421875 -1.234375 C 2.492188 -1.066406 2.484375 -0.898438 2.390625 -0.734375 C 2.347656 -0.648438 2.296875 -0.582031 2.234375 -0.53125 C 2.171875 -0.488281 2.109375 -0.457031 2.046875 -0.4375 C 1.984375 -0.414062 1.898438 -0.394531 1.796875 -0.375 C 1.671875 -0.351562 1.570312 -0.320312 1.5 -0.28125 C 1.425781 -0.238281 1.363281 -0.175781 1.3125 -0.09375 Z M 0.796875 0.484375 C 0.753906 0.460938 0.726562 0.425781 0.71875 0.375 C 0.707031 0.332031 0.710938 0.289062 0.734375 0.25 C 0.765625 0.207031 0.800781 0.175781 0.84375 0.15625 C 0.894531 0.144531 0.941406 0.148438 0.984375 0.171875 C 1.023438 0.203125 1.050781 0.238281 1.0625 0.28125 C 1.082031 0.332031 1.078125 0.378906 1.046875 0.421875 C 1.023438 0.460938 0.988281 0.488281 0.9375 0.5 C 0.882812 0.519531 0.835938 0.515625 0.796875 0.484375 Z M 0.796875 0.484375 "/></g></g></g></g></g></g></g></g></svg>