<?xml version="1.0" encoding="UTF-8" standalone="no"?><!DOCTYPE svg PUBLIC "-//W3C//DTD SVG 1.1//EN" "http://www.w3.org/Graphics/SVG/1.1/DTD/svg11.dtd"><svg width="100%" height="100%" viewBox="0 0 500 500" version="1.1" xmlns="http://www.w3.org/2000/svg" xmlns:xlink="http://www.w3.org/1999/xlink" xml:space="preserve" xmlns:serif="http://www.serif.com/" style="fill-rule:evenodd;clip-rule:evenodd;stroke-linejoin:round;stroke-miterlimit:2;"><g><g transform="matrix(0.895545,-0.444971,0.006068,0.898509,-23.536701,-157.780899)"><text x="339.348px" y="725.969px" style="font-family:'Helvetica';font-size:99.915px;fill:#0054d2;">RA</text></g><g><clipPath id="_clip1"><path d="M13.853,55.543l410.056,-1.362l1.228,369.722l-410.056,1.362l-1.228,-369.722Z"/></clipPath><g clip-path="url(#_clip1)"><path d="M421.672,144.825l-155.601,-89.157c-0.868,-0.496 -1.806,-0.738 -2.812,-0.735c-0.998,0.003 -1.934,0.252 -2.798,0.753l-55.57,32.343c-0.192,0.097 -0.376,0.211 -0.559,0.326l-21.351,12.43l-77.507,45.09c-0.865,0.502 -1.545,1.187 -2.041,2.055c-0.505,0.877 -0.747,1.806 -0.743,2.812l0.098,29.418l-56.99,0.189c-0.744,0.002 -1.453,0.145 -2.143,0.427c-0.682,0.291 -1.293,0.696 -1.817,1.223c-0.523,0.527 -0.924,1.141 -1.211,1.825c-0.278,0.692 -0.415,1.402 -0.413,2.146c0.002,0.744 0.145,1.461 0.427,2.152c0.291,0.682 0.696,1.284 1.223,1.808c0.527,0.532 1.141,0.933 1.825,1.211c0.692,0.287 1.402,0.424 2.146,0.422l56.99,-0.189l0.054,16.105l-38.381,0.128c-0.744,0.002 -1.461,0.145 -2.152,0.436c-0.682,0.282 -1.284,0.696 -1.817,1.223c-0.523,0.527 -0.924,1.132 -1.202,1.825c-0.287,0.684 -0.424,1.402 -0.422,2.146c0.002,0.744 0.145,1.453 0.436,2.143c0.282,0.682 0.687,1.293 1.214,1.817c0.536,0.523 1.141,0.924 1.825,1.211c0.692,0.278 1.411,0.424 2.155,0.422l38.381,-0.128l0.053,16.097l-62.347,0.207c-0.744,0.002 -1.461,0.154 -2.143,0.436c-0.691,0.291 -1.293,0.696 -1.817,1.223c-0.523,0.527 -0.924,1.141 -1.211,1.825c-0.287,0.692 -0.424,1.402 -0.422,2.146c0.002,0.744 0.145,1.461 0.436,2.143c0.291,0.691 0.696,1.293 1.223,1.817c0.527,0.523 1.132,0.933 1.825,1.211c0.684,0.287 1.402,0.424 2.146,0.422l62.347,-0.207l0.054,16.105l-38.381,0.128c-0.744,0.002 -1.461,0.145 -2.152,0.436c-0.682,0.282 -1.284,0.687 -1.817,1.223c-0.523,0.527 -0.924,1.132 -1.202,1.816c-0.287,0.692 -0.424,1.411 -0.422,2.155c0.002,0.744 0.145,1.453 0.436,2.143c0.282,0.682 0.687,1.293 1.214,1.817c0.536,0.523 1.141,0.924 1.825,1.211c0.692,0.278 1.411,0.415 2.155,0.413l38.381,-0.128l0.054,16.105l-56.99,0.189c-0.744,0.002 -1.452,0.154 -2.143,0.436c-0.682,0.291 -1.293,0.696 -1.817,1.223c-0.523,0.527 -0.924,1.132 -1.211,1.825c-0.278,0.684 -0.415,1.402 -0.413,2.146c0.002,0.744 0.145,1.461 0.427,2.143c0.291,0.691 0.696,1.293 1.223,1.817c0.527,0.523 1.141,0.933 1.825,1.211c0.692,0.287 1.402,0.424 2.146,0.422l56.99,-0.189l0.098,29.41c0.003,1.007 0.252,1.934 0.762,2.807c0.502,0.865 1.187,1.545 2.055,2.041l77.805,44.574l77.778,44.583c0.868,0.496 1.806,0.738 2.803,0.735c1.007,-0.003 1.934,-0.252 2.807,-0.753l155.005,-90.181c0.865,-0.511 1.554,-1.196 2.05,-2.064c0.496,-0.868 0.747,-1.806 0.743,-2.812l-0.596,-179.329c-0.003,-1.007 -0.26,-1.934 -0.762,-2.807c-0.502,-0.865 -1.196,-1.545 -2.064,-2.041Zm-158.372,-77.804l144.366,82.709l-44.676,25.996l-144.358,-82.709l44.668,-25.996Zm-74.676,43.462l18.809,-10.96l144.367,82.718l-32.053,18.645l-144.358,-82.709l13.235,-7.694Zm168.809,81.455l-32.035,18.637l32.035,-18.637Zm-98.606,217.577l-69.342,-39.745l-74.99,-42.973l-0.087,-26.171l8.403,-0.028c0.744,-0.002 1.453,-0.145 2.143,-0.436c0.682,-0.282 1.293,-0.696 1.817,-1.223c0.523,-0.527 0.924,-1.132 1.211,-1.825c0.278,-0.684 0.415,-1.402 0.413,-2.146c-0.002,-0.744 -0.145,-1.461 -0.427,-2.143c-0.291,-0.691 -0.696,-1.293 -1.223,-1.817c-0.527,-0.523 -1.141,-0.924 -1.825,-1.211c-0.692,-0.278 -1.402,-0.424 -2.146,-0.422l-8.403,0.028l-0.054,-16.105l24.937,-0.083c0.744,-0.002 1.453,-0.145 2.143,-0.427c0.682,-0.291 1.293,-0.696 1.817,-1.223c0.523,-0.527 0.924,-1.141 1.211,-1.825c0.278,-0.692 0.415,-1.402 0.413,-2.146c-0.002,-0.744 -0.145,-1.461 -0.427,-2.152c-0.291,-0.682 -0.696,-1.284 -1.223,-1.808c-0.527,-0.532 -1.141,-0.933 -1.825,-1.211c-0.692,-0.287 -1.402,-0.424 -2.146,-0.422l-24.937,0.083l-0.054,-16.105l8.403,-0.028c0.744,-0.002 1.453,-0.145 2.143,-0.436c0.682,-0.282 1.293,-0.696 1.817,-1.223c0.523,-0.527 0.924,-1.132 1.211,-1.825c0.278,-0.684 0.415,-1.402 0.413,-2.146c-0.002,-0.744 -0.145,-1.453 -0.427,-2.143c-0.291,-0.682 -0.696,-1.293 -1.223,-1.817c-0.527,-0.523 -1.141,-0.924 -1.825,-1.211c-0.692,-0.278 -1.402,-0.424 -2.146,-0.422l-8.403,0.028l-0.053,-16.097l24.937,-0.083c0.744,-0.002 1.452,-0.154 2.143,-0.436c0.682,-0.291 1.293,-0.696 1.817,-1.223c0.523,-0.527 0.924,-1.141 1.211,-1.825c0.278,-0.692 0.415,-1.402 0.413,-2.146c-0.002,-0.744 -0.145,-1.461 -0.427,-2.143c-0.291,-0.691 -0.696,-1.293 -1.223,-1.817c-0.527,-0.523 -1.141,-0.933 -1.825,-1.211c-0.692,-0.287 -1.402,-0.424 -2.146,-0.422l-24.937,0.083l-0.054,-16.105l8.403,-0.028c0.744,-0.002 1.453,-0.145 2.143,-0.436c0.682,-0.282 1.293,-0.687 1.817,-1.223c0.523,-0.527 0.924,-1.132 1.211,-1.816c0.278,-0.692 0.415,-1.411 0.413,-2.155c-0.002,-0.744 -0.145,-1.453 -0.427,-2.143c-0.291,-0.682 -0.696,-1.293 -1.223,-1.817c-0.527,-0.523 -1.141,-0.924 -1.825,-1.211c-0.692,-0.278 -1.402,-0.415 -2.146,-0.413l-8.403,0.028l-0.065,-19.703l144.331,82.709l0.553,166.384Zm5.026,-176.118l-144.34,-82.709l44.676,-25.996l144.358,82.709l-44.694,25.996Zm150.009,92.406l-143.814,83.675l-0.553,-166.384l44.703,-26.005c-0.404,-0.211 -0.205,-0.979 -0,-0c0.097,0.463 0.967,-0.272 0,0c-0.343,0.097 10.202,-6.511 11.2,-6.514c1.007,-0.003 -0.865,0.502 0,0l43.226,-25.151c0.06,-0.096 0.981,0.193 0,0c-0.299,-0.059 0.003,0.998 0,0l44.685,-25.987l0.553,166.366Zm-382.92,-85.155c0.002,0.744 -0.135,1.462 -0.422,2.146c-0.278,0.692 -0.687,1.298 -1.211,1.825c-0.523,0.527 -1.126,0.94 -1.817,1.223c-0.682,0.291 -1.399,0.434 -2.143,0.436l-5.155,0.017c-0.744,0.002 -1.462,-0.135 -2.146,-0.422c-0.692,-0.278 -1.298,-0.687 -1.825,-1.211c-0.527,-0.523 -0.94,-1.126 -1.223,-1.817c-0.291,-0.682 -0.434,-1.399 -0.436,-2.143c-0.002,-0.744 0.135,-1.453 0.422,-2.146c0.278,-0.684 0.687,-1.298 1.211,-1.825c0.523,-0.527 1.126,-0.932 1.817,-1.223c0.682,-0.282 1.399,-0.434 2.143,-0.436l5.155,-0.017c0.744,-0.002 1.462,0.144 2.146,0.422c0.692,0.287 1.298,0.687 1.825,1.211c0.527,0.523 0.94,1.126 1.223,1.817c0.291,0.682 0.434,1.399 0.436,2.143Z" style="fill:#fac64c;fill-rule:nonzero;"/></g></g><g transform="matrix(0.891467,0.453085,-0.127028,0.935731,-154.189832,40.337205)"><text x="324.686px" y="105.77px" style="font-family:'Helvetica';font-size:90.462px;fill:#0054d2;">BO</text></g></g></svg>